<svg aria-hidden="true" data-view-component="true" class="octicon octicon-rocket" viewBox="0 0 16 16">
  <!-- https://github.com/tc39/proposal-explicit-resource-management -->
  <path d="M14.06 0h.19C15.22 0 16 .78 16 1.75v.19a8.75 8.75 0 0 1-2.56 6.18l-.46.46c-.32.31-.64.62-.98.9v3.21a1.8 1.8 0 0 1-.83 1.5l-2.78 1.7a.75.75 0 0 1-1.1-.42l-.96-3.1a1.21 1.21 0 0 1-.15-.13L3.75 9.82a1.22 1.22 0 0 1-.12-.15l-3.1-.95A.75.75 0 0 1 .1 7.6l1.71-2.78A1.75 1.75 0 0 1 3.31 4h3.2c.3-.34.6-.67.9-.98l.47-.46A8.75 8.75 0 0 1 14.06 0ZM8.94 3.62l-.46.46c-.76.76-1.44 1.6-2.02 2.5L4.96 8.9l2.14 2.14 2.32-1.5c.9-.58 1.74-1.26 2.5-2.02l.46-.46a7.25 7.25 0 0 0 2.12-5.12v-.19a.25.25 0 0 0-.25-.25h-.19a7.25 7.25 0 0 0-5.12 2.12ZM3.56 14.56c-.73.73-2.33 1.05-3 1.15a.23.23 0 0 1-.2-.07.23.23 0 0 1-.07-.2c.1-.67.42-2.27 1.15-3a1.5 1.5 0 1 1 2.12 2.12Zm6.94-3.93-.27.17-2.35 1.52.55 1.78 1.95-1.2a.25.25 0 0 0 .12-.2ZM3.68 8.12 5.2 5.77l.18-.27H3.3a.25.25 0 0 0-.21.12L1.9 7.57ZM12 5a1 1 0 1 1-2 0 1 1 0 0 1 2 0Z"/>
</svg>
